<?xml version="1.0" encoding="UTF-8"?>
<svg id="Layer_2" data-name="Layer 2" xmlns="http://www.w3.org/2000/svg" viewBox="0 0 32 32">
  <defs>
    <style>
      .cls-1 {
        opacity: .68;
      }

      .cls-2 {
        opacity: .74;
      }

      .cls-3 {
        opacity: .9;
      }

      .cls-4 {
        opacity: .86;
      }

      .cls-5 {
        stroke: #29afb0;
        stroke-miterlimit: 10;
        stroke-width: .25px;
      }

      .cls-5, .cls-6 {
        fill: #fff;
      }

      .cls-6, .cls-7 {
        stroke-width: 0px;
      }

      .cls-7 {
        fill: #29afb0;
      }

      .cls-8 {
        opacity: .69;
      }

      .cls-9 {
        opacity: .79;
      }

      .cls-10 {
        opacity: .61;
      }
    </style>
  </defs>
  <g id="Layer_1-2" data-name="Layer 1">
    <g>
      <rect class="cls-6" width="32" height="32"/>
      <g>
        <circle class="cls-5" cx="16" cy="16.62" r="8"/>
        <g class="cls-10">
          <g>
            <path class="cls-5" d="m14.11,17.34c.96-.55,1.89-.72,1.89-.72,0,0-.61.73-1.57,1.28s-1.89.72-1.89.72c0,0,.61-.73,1.57-1.28Z"/>
            <path class="cls-5" d="m10.65,19.34c.96-.55,1.89-.72,1.89-.72,0,0-.61.73-1.57,1.28s-1.89.72-1.89.72c0,0,.61-.73,1.57-1.28Z"/>
          </g>
          <g>
            <path class="cls-5" d="m14.43,19.34c.96.55,1.57,1.28,1.57,1.28,0,0-.94-.17-1.89-.72s-1.57-1.28-1.57-1.28c0,0,.94.17,1.89.72Z"/>
            <path class="cls-5" d="m10.97,17.34c.96.55,1.57,1.28,1.57,1.28,0,0-.94-.17-1.89-.72s-1.57-1.28-1.57-1.28c0,0,.94.17,1.89.72Z"/>
          </g>
          <g>
            <path class="cls-5" d="m12.87,20.62c0,1.1-.32,2-.32,2,0,0-.32-.89-.32-2s.32-2,.32-2c0,0,.32.89.32,2Z"/>
            <path class="cls-5" d="m12.86,16.62c0,1.1-.32,2-.32,2,0,0-.32-.89-.32-2s.32-2,.32-2c0,0,.32.89.32,2Z"/>
          </g>
        </g>
        <g class="cls-8">
          <g>
            <path class="cls-5" d="m21.03,17.34c.96-.55,1.89-.72,1.89-.72,0,0-.61.73-1.57,1.28s-1.89.72-1.89.72c0,0,.61-.73,1.57-1.28Z"/>
            <path class="cls-5" d="m17.57,19.34c.96-.55,1.89-.72,1.89-.72,0,0-.61.73-1.57,1.28s-1.89.72-1.89.72c0,0,.61-.73,1.57-1.28Z"/>
          </g>
          <g>
            <path class="cls-5" d="m21.35,19.34c.96.55,1.57,1.28,1.57,1.28,0,0-.94-.17-1.89-.72s-1.57-1.28-1.57-1.28c0,0,.94.17,1.89.72Z"/>
            <path class="cls-5" d="m17.89,17.34c.96.55,1.57,1.28,1.57,1.28,0,0-.94-.17-1.89-.72s-1.57-1.28-1.57-1.28c0,0,.94.17,1.89.72Z"/>
          </g>
          <g>
            <path class="cls-5" d="m19.78,20.62c0,1.1-.32,2-.32,2,0,0-.32-.89-.32-2s.32-2,.32-2c0,0,.32.89.32,2Z"/>
            <path class="cls-5" d="m19.78,16.62c0,1.1-.32,2-.32,2,0,0-.32-.89-.32-2s.32-2,.32-2c0,0,.32.89.32,2Z"/>
          </g>
        </g>
        <g class="cls-3">
          <g>
            <path class="cls-5" d="m17.57,11.34c.96-.55,1.89-.72,1.89-.72,0,0-.61.73-1.57,1.28s-1.89.72-1.89.72c0,0,.61-.73,1.57-1.28Z"/>
            <path class="cls-5" d="m14.11,13.34c.96-.55,1.89-.72,1.89-.72,0,0-.61.73-1.57,1.28s-1.89.72-1.89.72c0,0,.61-.73,1.57-1.28Z"/>
          </g>
          <g>
            <path class="cls-5" d="m17.9,13.34c.96.55,1.57,1.28,1.57,1.28,0,0-.94-.16-1.89-.72s-1.57-1.28-1.57-1.28c0,0,.94.16,1.89.72Z"/>
            <path class="cls-5" d="m14.43,11.34c.96.55,1.57,1.28,1.57,1.28,0,0-.94-.16-1.89-.72s-1.57-1.28-1.57-1.28c0,0,.94.16,1.89.72Z"/>
          </g>
          <g>
            <path class="cls-5" d="m16.33,14.62c0,1.1-.33,2-.33,2,0,0-.33-.89-.33-2s.33-2,.33-2c0,0,.33.89.33,2Z"/>
            <path class="cls-5" d="m16.33,10.63c0,1.1-.33,2-.33,2,0,0-.33-.89-.33-2s.33-2,.33-2c0,0,.33.89.33,2Z"/>
          </g>
        </g>
        <g class="cls-2">
          <g>
            <path class="cls-5" d="m14.11,13.34c.96-.55,1.89-.72,1.89-.72,0,0-.61.73-1.57,1.28s-1.89.72-1.89.72c0,0,.61-.73,1.57-1.28Z"/>
            <path class="cls-5" d="m10.65,15.35c.96-.55,1.89-.72,1.89-.72,0,0-.61.73-1.57,1.28s-1.89.72-1.89.72c0,0,.61-.73,1.57-1.28Z"/>
          </g>
          <g>
            <path class="cls-5" d="m14.44,15.34c.96.55,1.57,1.28,1.57,1.28,0,0-.94-.17-1.89-.72s-1.57-1.28-1.57-1.28c0,0,.94.17,1.89.72Z"/>
            <path class="cls-5" d="m10.97,13.35c.96.55,1.57,1.28,1.57,1.28,0,0-.94-.17-1.89-.72s-1.57-1.28-1.57-1.28c0,0,.94.17,1.89.72Z"/>
          </g>
          <g>
            <path class="cls-5" d="m12.87,16.63c0,1.1-.32,2-.32,2,0,0-.32-.89-.32-2s.32-2,.32-2c0,0,.32.89.32,2Z"/>
            <path class="cls-5" d="m12.87,12.63c0,1.1-.32,2-.32,2,0,0-.32-.89-.32-2s.32-2,.32-2c0,0,.32.89.32,2Z"/>
          </g>
        </g>
        <g>
          <path class="cls-5" d="m23.24,18.63c0,1.1-.32,2-.32,2,0,0-.32-.89-.32-2s.32-2,.32-2c0,0,.32.89.32,2Z"/>
          <path class="cls-5" d="m23.24,14.63c0,1.1-.32,2-.32,2,0,0-.32-.89-.32-2s.32-2,.32-2c0,0,.32.89.32,2Z"/>
        </g>
        <g>
          <path class="cls-5" d="m17.53,9.98c-.96-.54-1.58-1.26-1.58-1.26,0,0,.94.15,1.9.69s1.58,1.26,1.58,1.26c0,0-.94-.15-1.9-.69Z"/>
          <path class="cls-5" d="m21.01,11.94c-.96-.54-1.58-1.26-1.58-1.26,0,0,.94.15,1.9.69s1.58,1.26,1.58,1.26c0,0-.94-.15-1.9-.69Z"/>
        </g>
        <g>
          <path class="cls-5" d="m14.04,9.41c.96-.54,1.9-.69,1.9-.69,0,0-.62.72-1.58,1.26s-1.9.69-1.9.69c0,0,.62-.72,1.58-1.26Z"/>
          <path class="cls-5" d="m10.55,11.37c.96-.54,1.9-.69,1.9-.69,0,0-.62.72-1.58,1.26s-1.9.69-1.9.69c0,0,.62-.72,1.58-1.26Z"/>
        </g>
        <g>
          <path class="cls-5" d="m17.53,9.98c-.96-.54-1.58-1.26-1.58-1.26,0,0,.94.15,1.9.69s1.58,1.26,1.58,1.26c0,0-.94-.15-1.9-.69Z"/>
          <path class="cls-5" d="m21.01,11.94c-.96-.54-1.58-1.26-1.58-1.26,0,0,.94.15,1.9.69s1.58,1.26,1.58,1.26c0,0-.94-.15-1.9-.69Z"/>
        </g>
        <g>
          <path class="cls-5" d="m9.38,18.65c0,1.1-.34,1.99-.34,1.99,0,0-.32-.9-.31-2s.34-1.99.34-1.99c0,0,.32.9.31,2Z"/>
          <path class="cls-5" d="m9.4,14.65c0,1.1-.34,1.99-.34,1.99,0,0-.32-.9-.31-2s.34-1.99.34-1.99c0,0,.32.9.31,2Z"/>
        </g>
        <g>
          <path class="cls-5" d="m10.64,21.86c-.95-.55-1.56-1.29-1.56-1.29,0,0,.94.17,1.89.72s1.56,1.29,1.56,1.29c0,0-.94-.17-1.89-.72Z"/>
          <path class="cls-5" d="m14.09,23.87c-.95-.55-1.56-1.29-1.56-1.29,0,0,.94.17,1.89.72s1.56,1.29,1.56,1.29c0,0-.94-.17-1.89-.72Z"/>
        </g>
        <g>
          <path class="cls-5" d="m21,21.31c.95-.55,1.89-.72,1.89-.72,0,0-.61.73-1.56,1.28s-1.89.72-1.89.72c0,0,.61-.73,1.56-1.28Z"/>
          <path class="cls-5" d="m17.55,23.31c.95-.55,1.89-.72,1.89-.72,0,0-.61.73-1.56,1.28s-1.89.72-1.89.72c0,0,.61-.73,1.56-1.28Z"/>
        </g>
        <g class="cls-9">
          <g>
            <path class="cls-5" d="m21.03,13.36c.96-.55,1.89-.72,1.89-.72,0,0-.61.73-1.57,1.28s-1.89.72-1.89.72c0,0,.61-.73,1.57-1.28Z"/>
            <path class="cls-5" d="m17.57,15.37c.96-.55,1.89-.72,1.89-.72,0,0-.61.73-1.57,1.28s-1.89.72-1.89.72c0,0,.61-.73,1.57-1.28Z"/>
          </g>
          <g>
            <path class="cls-5" d="m21.35,15.36c.96.55,1.57,1.28,1.57,1.28,0,0-.94-.16-1.89-.72s-1.57-1.28-1.57-1.28c0,0,.94.16,1.89.72Z"/>
            <path class="cls-5" d="m17.89,13.37c.96.55,1.57,1.28,1.57,1.28,0,0-.94-.16-1.89-.72s-1.57-1.28-1.57-1.28c0,0,.94.16,1.89.72Z"/>
          </g>
          <g>
            <path class="cls-5" d="m19.79,16.65c0,1.1-.33,2-.33,2,0,0-.33-.89-.33-2s.33-2,.33-2c0,0,.33.89.33,2Z"/>
            <path class="cls-5" d="m19.79,12.65c0,1.1-.33,2-.33,2,0,0-.33-.89-.33-2s.33-2,.33-2c0,0,.33.89.33,2Z"/>
          </g>
        </g>
        <g class="cls-4">
          <g>
            <path class="cls-5" d="m17.57,19.33c.96-.55,1.89-.72,1.89-.72,0,0-.61.73-1.57,1.28s-1.89.72-1.89.72c0,0,.61-.73,1.57-1.28Z"/>
            <path class="cls-5" d="m14.11,21.33c.96-.55,1.89-.72,1.89-.72,0,0-.61.73-1.57,1.28s-1.89.72-1.89.72c0,0,.61-.73,1.57-1.28Z"/>
          </g>
          <g>
            <path class="cls-5" d="m17.9,21.33c.96.55,1.57,1.28,1.57,1.28,0,0-.94-.16-1.89-.72s-1.57-1.28-1.57-1.28c0,0,.94.16,1.89.72Z"/>
            <path class="cls-5" d="m14.43,19.34c.96.55,1.57,1.28,1.57,1.28,0,0-.94-.16-1.89-.72s-1.57-1.28-1.57-1.28c0,0,.94.16,1.89.72Z"/>
          </g>
          <g>
            <path class="cls-5" d="m16.33,22.62c0,1.1-.33,2-.33,2,0,0-.33-.89-.33-2s.33-2,.33-2c0,0,.33.89.33,2Z"/>
            <path class="cls-5" d="m16.33,18.62c0,1.1-.33,2-.33,2,0,0-.33-.89-.33-2s.33-2,.33-2c0,0,.33.89.33,2Z"/>
          </g>
        </g>
        <g class="cls-1">
          <g>
            <path class="cls-5" d="m17.57,15.34c.96-.55,1.89-.72,1.89-.72,0,0-.61.73-1.57,1.28s-1.89.72-1.89.72c0,0,.61-.73,1.57-1.28Z"/>
            <path class="cls-5" d="m14.11,17.34c.96-.55,1.89-.72,1.89-.72,0,0-.61.73-1.57,1.28s-1.89.72-1.89.72c0,0,.61-.73,1.57-1.28Z"/>
          </g>
          <g>
            <path class="cls-5" d="m17.9,17.34c.96.55,1.57,1.28,1.57,1.28,0,0-.94-.16-1.89-.72s-1.57-1.28-1.57-1.28c0,0,.94.16,1.89.72Z"/>
            <path class="cls-5" d="m14.43,15.34c.96.55,1.57,1.28,1.57,1.28,0,0-.94-.16-1.89-.72s-1.57-1.28-1.57-1.28c0,0,.94.16,1.89.72Z"/>
          </g>
          <g>
            <path class="cls-5" d="m16.33,18.62c0,1.1-.33,2-.33,2,0,0-.33-.89-.33-2s.33-2,.33-2c0,0,.33.89.33,2Z"/>
            <path class="cls-5" d="m16.33,14.62c0,1.1-.33,2-.33,2,0,0-.33-.89-.33-2s.33-2,.33-2c0,0,.33.89.33,2Z"/>
          </g>
        </g>
      </g>
      <path class="cls-7" d="m12.33,19.4v-5.64h-.9v-.94h2.57l1.98,5.15,2-5.15h2.6v.94h-.91v5.64h.91v.94h-2.83v-.94h.9v-5.64l-2.59,6.65h-.22l-2.57-6.65v5.64h.83v.94h-2.66v-.94h.9Z"/>
    </g>
  </g>
</svg>