<?xml version="1.0" encoding="UTF-8"?>
<svg id="Layer_2" data-name="Layer 2" xmlns="http://www.w3.org/2000/svg" viewBox="0 0 152 152.77">
  <defs>
    <style>
      .cls-1 {
        fill: #28AFB0;
        stroke-width: 0px;
      }

      .cls-2, .cls-3 {
        fill: none;
        stroke: #28AFB0;
        stroke-miterlimit: 10;
      }

      .cls-3 {
        stroke-width: 2px;
      }
    </style>
  </defs>
  <g id="Layer_1-2" data-name="Layer 1">
    <g>
      <circle class="cls-3" cx="76" cy="76.35" r="75"/>
      <g>
        <g>
          <path class="cls-2" d="m58.27,83.13c8.95-5.17,17.74-6.72,17.74-6.72,0,0-5.74,6.83-14.69,12s-17.74,6.72-17.74,6.72c0,0,5.74-6.83,14.69-12Z"/>
          <path class="cls-2" d="m25.81,101.89c8.95-5.17,17.74-6.72,17.74-6.72,0,0-5.74,6.83-14.69,12s-17.74,6.72-17.74,6.72c0,0,5.74-6.83,14.69-12Z"/>
        </g>
        <g>
          <path class="cls-2" d="m61.32,101.88c8.95,5.17,14.69,12,14.69,12,0,0-8.78-1.55-17.74-6.72s-14.69-12-14.69-12c0,0,8.78,1.55,17.74,6.72Z"/>
          <path class="cls-2" d="m28.85,83.15c8.95,5.17,14.69,12,14.69,12,0,0-8.78-1.55-17.74-6.72s-14.69-12-14.69-12c0,0,8.78,1.55,17.74,6.72Z"/>
        </g>
        <g>
          <path class="cls-2" d="m46.61,113.89c0,10.34-3.05,18.72-3.05,18.72,0,0-3.05-8.38-3.05-18.72s3.05-18.72,3.05-18.72c0,0,3.05,8.38,3.05,18.72Z"/>
          <path class="cls-2" d="m46.6,76.41c0,10.34-3.05,18.72-3.05,18.72,0,0-3.05-8.38-3.05-18.72s3.05-18.72,3.05-18.72c0,0,3.05,8.38,3.05,18.72Z"/>
        </g>
      </g>
      <g>
        <g>
          <path class="cls-2" d="m123.13,83.11c8.95-5.17,17.74-6.72,17.74-6.72,0,0-5.74,6.83-14.69,12s-17.74,6.72-17.74,6.72c0,0,5.74-6.83,14.69-12Z"/>
          <path class="cls-2" d="m90.67,101.87c8.95-5.17,17.74-6.72,17.74-6.72,0,0-5.74,6.83-14.69,12s-17.74,6.72-17.74,6.72c0,0,5.74-6.83,14.69-12Z"/>
        </g>
        <g>
          <path class="cls-2" d="m126.18,101.86c8.95,5.17,14.69,12,14.69,12,0,0-8.78-1.55-17.74-6.72s-14.69-12-14.69-12c0,0,8.78,1.55,17.74,6.72Z"/>
          <path class="cls-2" d="m93.71,83.13c8.95,5.17,14.69,12,14.69,12,0,0-8.78-1.55-17.74-6.72s-14.69-12-14.69-12c0,0,8.78,1.55,17.74,6.72Z"/>
        </g>
        <g>
          <path class="cls-2" d="m111.48,113.87c0,10.34-3.05,18.72-3.05,18.72,0,0-3.05-8.38-3.05-18.72s3.05-18.72,3.05-18.72c0,0,3.05,8.38,3.05,18.72Z"/>
          <path class="cls-2" d="m111.46,76.39c0,10.34-3.05,18.72-3.05,18.72,0,0-3.05-8.38-3.05-18.72s3.05-18.72,3.05-18.72c0,0,3.05,8.38,3.05,18.72Z"/>
        </g>
      </g>
      <g>
        <g>
          <path class="cls-2" d="m90.71,26.9c8.95-5.17,17.74-6.71,17.74-6.71,0,0-5.73,6.84-14.68,12.01s-17.74,6.71-17.74,6.71c0,0,5.73-6.84,14.68-12.01Z"/>
          <path class="cls-2" d="m58.25,45.65c8.95-5.17,17.74-6.71,17.74-6.71,0,0-5.73,6.84-14.68,12.01s-17.74,6.71-17.74,6.71c0,0,5.73-6.84,14.68-12.01Z"/>
        </g>
        <g>
          <path class="cls-2" d="m93.77,45.64c8.95,5.17,14.68,12.01,14.68,12.01,0,0-8.79-1.54-17.74-6.71s-14.68-12.01-14.68-12.01c0,0,8.79,1.54,17.74,6.71Z"/>
          <path class="cls-2" d="m61.3,26.91c8.95,5.17,14.68,12.01,14.68,12.01,0,0-8.79-1.54-17.74-6.71s-14.68-12.01-14.68-12.01c0,0,8.79,1.54,17.74,6.71Z"/>
        </g>
        <g>
          <path class="cls-2" d="m79.07,57.66c0,10.34-3.06,18.72-3.06,18.72,0,0-3.06-8.38-3.06-18.72s3.06-18.72,3.06-18.72c0,0,3.06,8.38,3.06,18.72Z"/>
          <path class="cls-2" d="m79.06,20.18c0,10.34-3.06,18.72-3.06,18.72,0,0-3.06-8.38-3.06-18.72s3.06-18.72,3.06-18.72c0,0,3.06,8.38,3.06,18.72Z"/>
        </g>
      </g>
      <g>
        <g>
          <path class="cls-2" d="m58.3,45.67c8.95-5.17,17.74-6.72,17.74-6.72,0,0-5.74,6.83-14.69,12s-17.74,6.72-17.74,6.72c0,0,5.74-6.83,14.69-12Z"/>
          <path class="cls-2" d="m25.84,64.43c8.95-5.17,17.74-6.72,17.74-6.72,0,0-5.74,6.83-14.69,12s-17.74,6.72-17.74,6.72c0,0,5.74-6.83,14.69-12Z"/>
        </g>
        <g>
          <path class="cls-2" d="m61.35,64.41c8.95,5.17,14.69,12,14.69,12,0,0-8.78-1.55-17.74-6.72s-14.69-12-14.69-12c0,0,8.78,1.55,17.74,6.72Z"/>
          <path class="cls-2" d="m28.88,45.68c8.95,5.17,14.69,12,14.69,12,0,0-8.78-1.55-17.74-6.72s-14.69-12-14.69-12c0,0,8.78,1.55,17.74,6.72Z"/>
        </g>
        <g>
          <path class="cls-2" d="m46.64,76.43c0,10.34-3.05,18.72-3.05,18.72,0,0-3.05-8.38-3.05-18.72s3.05-18.72,3.05-18.72c0,0,3.05,8.38,3.05,18.72Z"/>
          <path class="cls-2" d="m46.63,38.94c0,10.34-3.05,18.72-3.05,18.72,0,0-3.05-8.38-3.05-18.72s3.05-18.72,3.05-18.72c0,0,3.05,8.38,3.05,18.72Z"/>
        </g>
      </g>
      <g>
        <path class="cls-2" d="m90.31,14.14c-9.02-5.06-14.84-11.82-14.84-11.82,0,0,8.8,1.45,17.82,6.5,9.02,5.06,14.84,11.82,14.84,11.82,0,0-8.8-1.45-17.82-6.5Z"/>
        <path class="cls-2" d="m123.01,32.47c-9.02-5.06-14.84-11.82-14.84-11.82,0,0,8.8,1.45,17.82,6.5s14.84,11.82,14.84,11.82c0,0-8.8-1.45-17.82-6.5Z"/>
      </g>
      <g>
        <path class="cls-2" d="m57.65,8.81c9.02-5.05,17.82-6.49,17.82-6.49,0,0-5.83,6.75-14.85,11.8s-17.82,6.49-17.82,6.49c0,0,5.83-6.75,14.85-11.8Z"/>
        <path class="cls-2" d="m24.95,27.13c9.02-5.05,17.82-6.49,17.82-6.49,0,0-5.83,6.75-14.85,11.8-9.02,5.05-17.82,6.49-17.82,6.49,0,0,5.83-6.75,14.85-11.8Z"/>
      </g>
      <g>
        <path class="cls-2" d="m90.31,14.14c-9.02-5.06-14.84-11.82-14.84-11.82,0,0,8.8,1.45,17.82,6.5,9.02,5.06,14.84,11.82,14.84,11.82,0,0-8.8-1.45-17.82-6.5Z"/>
        <path class="cls-2" d="m123.01,32.47c-9.02-5.06-14.84-11.82-14.84-11.82,0,0,8.8,1.45,17.82,6.5s14.84,11.82,14.84,11.82c0,0-8.8-1.45-17.82-6.5Z"/>
      </g>
      <g>
        <path class="cls-2" d="m13.9,95.39c-.08,10.34-3.19,18.7-3.19,18.7,0,0-2.98-8.4-2.9-18.74s3.19-18.7,3.19-18.7c0,0,2.98,8.4,2.9,18.74Z"/>
        <path class="cls-2" d="m14.17,57.91c-.08,10.34-3.19,18.7-3.19,18.7,0,0-2.98-8.4-2.9-18.74s3.19-18.7,3.19-18.7c0,0,2.98,8.4,2.9,18.74Z"/>
      </g>
      <g>
        <path class="cls-2" d="m25.71,125.53c-8.94-5.2-14.65-12.05-14.65-12.05,0,0,8.78,1.59,17.71,6.79s14.65,12.05,14.65,12.05c0,0-8.78-1.59-17.71-6.79Z"/>
        <path class="cls-2" d="m58.11,144.38c-8.94-5.2-14.65-12.05-14.65-12.05,0,0,8.78,1.59,17.71,6.79s14.65,12.05,14.65,12.05c0,0-8.78-1.59-17.71-6.79Z"/>
      </g>
      <g>
        <path class="cls-2" d="m122.91,120.33c8.94-5.19,17.72-6.76,17.72-6.76,0,0-5.72,6.84-14.67,12.03-8.94,5.19-17.72,6.76-17.72,6.76,0,0,5.72-6.84,14.67-12.03Z"/>
        <path class="cls-2" d="m90.49,139.14c8.94-5.19,17.72-6.76,17.72-6.76,0,0-5.72,6.84-14.67,12.03s-17.72,6.76-17.72,6.76c0,0,5.72-6.84,14.67-12.03Z"/>
      </g>
      <g>
        <path class="cls-2" d="m143.74,94.86c-.03,10.34-3.1,18.71-3.1,18.71,0,0-3.02-8.39-2.99-18.73.03-10.34,3.1-18.71,3.1-18.71,0,0,3.02,8.39,2.99,18.73Z"/>
        <path class="cls-2" d="m143.84,57.37c-.03,10.34-3.1,18.71-3.1,18.71,0,0-3.02-8.39-2.99-18.73.03-10.34,3.1-18.71,3.1-18.71,0,0,3.02,8.39,2.99,18.73Z"/>
      </g>
      <g>
        <g>
          <path class="cls-2" d="m123.13,45.86c8.95-5.17,17.74-6.71,17.74-6.71,0,0-5.73,6.84-14.68,12.01s-17.74,6.71-17.74,6.71c0,0,5.73-6.84,14.68-12.01Z"/>
          <path class="cls-2" d="m90.68,64.62c8.95-5.17,17.74-6.71,17.74-6.71,0,0-5.73,6.84-14.68,12.01s-17.74,6.71-17.74,6.71c0,0,5.73-6.84,14.68-12.01Z"/>
        </g>
        <g>
          <path class="cls-2" d="m126.2,64.6c8.95,5.17,14.68,12.01,14.68,12.01,0,0-8.79-1.54-17.74-6.71s-14.68-12.01-14.68-12.01c0,0,8.79,1.54,17.74,6.71Z"/>
          <path class="cls-2" d="m93.73,45.87c8.95,5.17,14.68,12.01,14.68,12.01,0,0-8.79-1.54-17.74-6.71s-14.68-12.01-14.68-12.01c0,0,8.79,1.54,17.74,6.71Z"/>
        </g>
        <g>
          <path class="cls-2" d="m111.5,76.63c0,10.34-3.06,18.72-3.06,18.72,0,0-3.06-8.38-3.06-18.72s3.06-18.72,3.06-18.72c0,0,3.06,8.38,3.06,18.72Z"/>
          <path class="cls-2" d="m111.49,39.15c0,10.34-3.06,18.72-3.06,18.72,0,0-3.06-8.38-3.06-18.72s3.06-18.72,3.06-18.72c0,0,3.06,8.38,3.06,18.72Z"/>
        </g>
      </g>
      <g>
        <g>
          <path class="cls-2" d="m90.72,101.82c8.95-5.17,17.74-6.71,17.74-6.71,0,0-5.73,6.84-14.68,12.01s-17.74,6.71-17.74,6.71c0,0,5.73-6.84,14.68-12.01Z"/>
          <path class="cls-2" d="m58.26,120.58c8.95-5.17,17.74-6.71,17.74-6.71,0,0-5.73,6.84-14.68,12.01s-17.74,6.71-17.74,6.71c0,0,5.73-6.84,14.68-12.01Z"/>
        </g>
        <g>
          <path class="cls-2" d="m93.79,120.57c8.95,5.17,14.68,12.01,14.68,12.01,0,0-8.79-1.54-17.74-6.71s-14.68-12.01-14.68-12.01c0,0,8.79,1.54,17.74,6.71Z"/>
          <path class="cls-2" d="m61.32,101.84c8.95,5.17,14.68,12.01,14.68,12.01,0,0-8.79-1.54-17.74-6.71s-14.68-12.01-14.68-12.01c0,0,8.79,1.54,17.74,6.71Z"/>
        </g>
        <g>
          <path class="cls-2" d="m79.09,132.59c0,10.34-3.06,18.72-3.06,18.72,0,0-3.06-8.38-3.06-18.72s3.06-18.72,3.06-18.72c0,0,3.06,8.38,3.06,18.72Z"/>
          <path class="cls-2" d="m79.07,95.11c0,10.34-3.06,18.72-3.06,18.72,0,0-3.06-8.38-3.06-18.72s3.06-18.72,3.06-18.72c0,0,3.06,8.38,3.06,18.72Z"/>
        </g>
      </g>
      <g>
        <g>
          <path class="cls-2" d="m90.71,64.34c8.95-5.17,17.74-6.71,17.74-6.71,0,0-5.73,6.84-14.68,12.01s-17.74,6.71-17.74,6.71c0,0,5.73-6.84,14.68-12.01Z"/>
          <path class="cls-2" d="m58.25,83.09c8.95-5.17,17.74-6.71,17.74-6.71,0,0-5.73,6.84-14.68,12.01s-17.74,6.71-17.74,6.71c0,0,5.73-6.84,14.68-12.01Z"/>
        </g>
        <g>
          <path class="cls-2" d="m93.77,83.08c8.95,5.17,14.68,12.01,14.68,12.01,0,0-8.79-1.54-17.74-6.71s-14.68-12.01-14.68-12.01c0,0,8.79,1.54,17.74,6.71Z"/>
          <path class="cls-2" d="m61.3,64.35c8.95,5.17,14.68,12.01,14.68,12.01,0,0-8.79-1.54-17.74-6.71s-14.68-12.01-14.68-12.01c0,0,8.79,1.54,17.74,6.71Z"/>
        </g>
        <g>
          <path class="cls-2" d="m79.07,95.11c0,10.34-3.06,18.72-3.06,18.72,0,0-3.06-8.38-3.06-18.72s3.06-18.72,3.06-18.72c0,0,3.06,8.38,3.06,18.72Z"/>
          <path class="cls-2" d="m79.06,57.62c0,10.34-3.06,18.72-3.06,18.72,0,0-3.06-8.38-3.06-18.72s3.06-18.72,3.06-18.72c0,0,3.06,8.38,3.06,18.72Z"/>
        </g>
      </g>
      <path class="cls-1" d="m41.6,102.41v-52.84h-8.46v-8.82h24.12l18.54,48.31,18.75-48.31h24.37v8.82h-8.51v52.84h8.51v8.82h-26.55v-8.82h8.41v-52.84l-24.32,62.37h-2.08l-24.07-62.37v52.84h7.75v8.82h-24.93v-8.82h8.46Z"/>
    </g>
  </g>
</svg>